# xmcd
#
# Track frame offsets:
#	150
#	15151
#	28555
#	41066
#	56990
#	70130
#	84601
#	100013
#	117184
#	131236
#	150824
#	164496
#	180474
#	194710
#	208949
#	222391
#	233233
#	248983
#	267800
#	286102
#	311557
#
# Disc length: 4440 seconds
#
# Revision: 1
# Processed by: cddbd v1.5.1PL0 Copyright (c) Steve Scherf et al.
# Submitted via: audiograbber 1.83.01
#
DISCID=2b115615
DTITLE=TRUCK STOP - HAPPY BIRTHDAY... TRUCK STOP - 30 Jahre
DYEAR=2003
DGENRE=Country
TTITLE0=Easy Rider
TTITLE1=Take it easy, altes Haus
TTITLE2=Der wilde, wilde Westen
TTITLE3=Ich möcht' so gern Dave Dudley hör'n
TTITLE4=Die Frau mit dem Gurt
TTITLE5=Der Tramp
TTITLE6=Henry's Farm
TTITLE7=Old Texas Town, die Westernstadt
TTITLE8=Das gib's doch nur in Dallas
TTITLE9=Nein danke, ich rauch' nicht mehr
TTITLE10=Hilly Billy Country Lilly
TTITLE11=Der Roadie von der Country Band
TTITLE12=Nashville Tennessee
TTITLE13=Happy Birthday
TTITLE14=Du kannst geh'n
TTITLE15=Osnabrück hin und zurück
TTITLE16=Ich rauch' zuviel
TTITLE17=Rock'n Roll Hotel
TTITLE18=Sie will zurück nach München
TTITLE19=Jetzt ist Schluss
TTITLE20=Daten-CD
EXTD=Bonustracks - erstmals auf CD: Titel 16 - 20
EXTT0=
EXTT1=
EXTT2=
EXTT3=
EXTT4=
EXTT5=
EXTT6=
EXTT7=
EXTT8=
EXTT9=
EXTT10=
EXTT11=
EXTT12=
EXTT13=
EXTT14=
EXTT15=
EXTT16=
EXTT17=
EXTT18=
EXTT19=
EXTT20=
PLAYORDER=
